<svg version="1.1" xmlns="http://www.w3.org/2000/svg" xmlns:xlink="http://www.w3.org/1999/xlink" x="0px" y="0px" viewBox="0 0 46 32" class="c13328" xml:space="preserve" aria-hidden="true">
<style type="text/css">
	.st0{fill:#010202;}
</style>
<path class="st0" d="M34.41,5.45c-3.02,0-5.46,2.39-5.46,5.34l-5.46-1.07c0-5.89,4.89-9.6,10.92-9.6h2.41V1.5
	c0,1.16-2.19,2.8-2.19,3.96H34.41z M10.99,10.74c6.07,0,10.99,4.76,10.99,10.63c0,5.87-4.92,10.63-10.99,10.63S0,27.24,0,21.37V2.07
	C1.21,2.07,2.85,0,4.07,0H5.5v12.17C7.17,11.23,9.07,10.74,10.99,10.74 M11.97,26.57c2.49,0,4.52-1.97,4.52-4.4
	c0-1.55-0.59-3.04-1.66-4.19c-2.38-2.56-6.44-2.76-9.07-0.45c-0.09,0.08-0.18,0.16-0.26,0.24v3.45c0,2.96,2.46,5.35,5.49,5.35H11.97
	z M35.02,10.07c6.02,0,10.35,5.33,10.35,11.23c0,5.91-4.88,10.7-10.89,10.7c-6.02,0-10.89-3.72-10.89-9.63l5.45-1.07
	c0,2.96,2.44,5.35,5.45,5.35c3.01,0,5.45-2.39,5.45-5.35c0-2.96-1.89-5.89-4.9-5.89h-2.4v-1.39c0-1.18,2.18-2.78,2.18-3.96H35.02z"></path>
</svg>
